<svg xmlns="http://www.w3.org/2000/svg" xml:space="preserve" viewBox="0 0 300 261.58">
  <path fill="none" d="M0 8555V0h17110v17110H0V8555zm3330 5276c0-33 5-63 10-66 6-3 10-53 10-113 0-59 5-124 11-144 10-38 10-38 64-38 37 0 55 4 56 13 0 10 2 10 6 0 2-7 18-13 33-13 16 0 32-4 35-10 3-5 15-10 26-10 10 0 19-4 19-10 0-5 20-10 45-10s45-4 45-10c0-5 12-13 28-16 23-6 111-46 164-75 10-5 27-9 38-9s20-4 20-9c0-9 21-12 168-27 31-3 61-10 67-15 5-5 19-9 32-9s23-4 23-9c0-13 114-22 375-27 127-3 234-9 239-14 6-6 40-10 77-10 39 0 79-6 96-14 48-25 287-39 458-27 83 6 217 11 298 11 122 0 149 3 153 15 4 8 12 15 19 15 8 0 17 9 20 20 4 14 15 20 36 20 16 0 29-4 29-10 0-5 11-10 24-10 14 0 28-4 31-10 3-5 26-10 50-10 25 0 45-5 47-12 3-8 60-13 199-15 167-3 196-6 209-21 8-9 27-23 43-31 15-8 27-18 27-23s32-8 71-7c41 1 75-3 82-10 14-14 334-16 339-1s2654 18 2670 2c15-15 378-18 378-2 0 6 53 10 140 10 130 0 211 10 252 31 10 5 41 9 68 9 45 0 56 4 86 34 20 19 48 36 62 38 21 2 28 9 30 31 3 25 6 27 51 27 68 0 101 18 101 55 0 17 7 48 14 70l14 40 181 3c105 1 181-1 181-7 0-5 12-12 28-16 40-11 1066-5 1104 6 18 5 77 12 130 16 83 5 98 9 103 24 6 17 18 19 130 19 90 0 124-3 127-12 5-15 309-26 776-27 161-1 300-5 310-9 9-5 35-17 57-28 54-26 59-64 15-112-16-18-30-35-30-38s-11-17-25-32-35-47-46-72c-12-25-24-47-28-50-13-11-51-93-51-112 0-11-9-31-20-45s-20-32-20-39c0-8-4-14-10-14s-10-30-10-70 4-70 10-70 10-5 10-11c0-7 10-20 22-30 11-11 21-20 22-21s84-4 186-7c127-4 179-9 165-15-35-17-42-30-50-90-4-34-10-54-14-47-5 8-25 11-52 9-42-3-44-5-47-35-3-31-6-33-43-33-38 0-39-1-39-35 0-29-9-45-54-90-62-62-60-50-75-345-5-91-13-196-17-234-8-75 15-948 25-956 3-3 14-15 24-26 17-21 17-22-6-50-15-19-27-50-33-89-23-151 5-933 36-1000 12-27 20-112 26-275 3-78 10-137 16-141s14-67 19-140c5-74 12-141 15-149 12-32 23-553 12-579-10-24-29-247-32-381-1-30-7-65-14-77-6-12-12-37-12-57 0-19-4-38-10-41-5-3-10-19-10-36 0-16-4-29-10-29s-10-91-10-254c0-159 4-257 10-261 16-10 12-45-6-45-17 0-32-14-51-48-15-26-17-112-3-112 6 0 10-5 10-11 0-16 26-39 44-39 9 0 16-8 16-20 0-11-4-20-10-20-5 0-10-16-10-35s-4-35-10-35-10-48-10-124c0-73-4-127-10-131-5-3-10-28-10-54s-5-52-12-59c-9-9-12-66-13-196v-183l33-31c17-16 32-35 32-41s14-11 30-11c31 0 41-16 15-26-8-4-23-23-33-43-15-31-17-62-14-216 1-99 7-207 12-240 13-80 13-362 0-370-5-3-10-19-10-35 0-15-5-30-12-32-15-5-14-360 3-541 21-228-14-1001-46-1019-7-5-29-41-49-82-35-72-37-73-81-79-48-7-105 0-105 13 0 4-11 11-24 14-27 7-108 82-144 133-13 18-57 65-98 105-40 40-74 78-74 83 0 6-9 17-20 25s-20 20-20 27-4 13-8 13-15 12-24 27c-9 16-35 46-57 68s-41 46-41 53c0 6-4 12-9 12s-11 8-14 18c-6 18-38 74-48 82-3 3-9 12-12 20-4 8-23 42-42 75s-39 70-45 83c-5 12-15 29-22 38-7 8-18 20-23 27-6 7-22 28-35 47s-32 42-42 51-18 21-18 28c0 6-4 11-10 11-5 0-10 7-10 15s-4 15-10 15c-5 0-10 7-10 15s-4 15-10 15c-5 0-10 7-10 15s-4 15-10 15c-5 0-10 5-10 10 0 6-5 16-10 23-47 56-60 74-60 85 0 6-4 12-10 12-5 0-10 7-10 15s-4 15-10 15c-5 0-10 9-10 20s-4 20-10 20c-5 0-10 7-10 15s-4 15-10 15c-5 0-10 9-10 20s-4 20-10 20c-5 0-10 7-10 15s-4 15-10 15c-5 0-10 11-10 25s-3 25-7 25c-5 0-21 27-38 60-16 33-33 60-37 60s-8 9-8 20-4 20-8 20c-5 0-15 12-23 27-8 16-22 37-31 47-10 11-18 26-18 33s-4 13-10 13c-5 0-10 7-10 15s-4 15-10 15c-5 0-10 7-10 15s-4 15-10 15c-5 0-10 5-10 10 0 10-8 21-67 86-13 14-23 31-23 38s-9 22-20 34-20 26-20 32c0 5-3 10-8 10-4 0-13 13-20 28-6 16-21 38-32 50s-20 24-20 27-9 16-21 28c-11 12-30 40-41 62s-27 44-34 48c-8 4-14 12-14 18 0 5-9 19-20 31s-20 30-20 40-4 18-10 18c-5 0-10 7-10 15s-4 15-10 15c-5 0-10 9-10 20s-4 20-10 20c-5 0-10 6-10 13s-9 19-20 27-20 20-20 27c0 6-6 16-13 20s-21 26-31 48c-9 22-21 47-26 55s-17 31-27 50c-9 19-25 42-35 51s-18 19-18 23-13 21-30 39c-16 18-30 37-30 44 0 6-3 13-8 15-4 2-25 37-46 78-22 41-47 87-58 102-10 14-18 33-18 42s-4 16-10 16c-5 0-10 7-10 15s-4 15-10 15c-5 0-10 6-10 14 0 7-13 27-30 44-16 18-30 36-30 42 0 5-4 10-10 10-5 0-10 7-10 15s-4 15-8 15c-5 0-21 28-36 63-16 34-31 64-35 67-12 9-31 50-31 65 0 8-4 15-10 15-5 0-10 7-10 15s-4 15-10 15c-5 0-10 7-10 15s-4 15-10 15c-5 0-10 11-10 25s-4 25-10 25c-5 0-10 9-10 20s-4 20-10 20c-5 0-10 9-10 20s-4 20-10 20c-5 0-10 6-10 14s-7 16-15 20c-8 3-15 11-15 18s-9 24-20 38-20 33-20 43c0 9-4 17-10 17-5 0-10 9-10 20s-4 20-10 20c-5 0-10 5-10 12 0 13-64 76-100 98-13 8-33 26-45 39-56 66-117 119-161 141-27 14-52 30-56 35-4 6-8 33-8 62 0 46 3 54 29 72 20 15 45 21 80 21 39 0 51 4 51 15 0 8 5 24 12 34 8 14 9 33 2 68l-9 48-82 3c-67 2-83 0-83-12 0-8-18-34-40-58-21-23-44-49-50-55-6-7-26-13-45-13-46 0-65-9-65-31 0-10-7-19-15-19-26 0-52-32-73-87-11-29-27-59-36-68s-16-24-16-34c0-9-12-33-26-52s-33-50-42-69-19-37-23-40-8-13-10-24c-3-12-21-24-54-34-27-9-51-20-53-24s-12-8-23-8c-10 0-28-8-40-18-11-9-29-24-39-32-14-13-20-35-23-100-6-103-16-160-28-160-5 0-9-11-9-25s-4-33-9-43c-37-71-81-172-81-185 0-9-4-19-10-22-5-3-10-19-10-35s-4-32-10-35c-5-3-10-17-10-30s-5-27-10-30c-6-3-10-19-10-36 0-16-4-29-10-29-5 0-10-9-10-20s-3-20-8-20c-9 0-32-72-32-100 0-11-4-20-10-20-5 0-10-9-10-19 0-11-3-21-7-23-11-4-43-75-43-93 0-8-4-15-9-15s-11-10-14-22c-6-28-37-117-48-140-5-10-9-34-9-53s-4-35-10-35c-5 0-10-11-10-24 0-14-4-28-10-31-5-3-10-19-10-36 0-16-4-29-10-29-5 0-10-16-10-35s-4-35-10-35c-5 0-10-8-10-18 0-11-9-29-20-42-17-20-50-111-50-139 0-6-4-11-10-11-5 0-10-7-10-15 0-14-17-51-49-105-5-8-13-26-18-40-6-14-20-45-32-68-11-24-21-51-21-60 0-32-41-62-85-62-31 0-49-7-69-25-15-14-32-25-38-25-5 0-37-20-70-45-34-25-66-49-73-53-18-10-78-100-102-152-22-48-32-83-58-200-10-41-21-79-25-85-4-5-10-32-14-60-11-100-18-140-27-149-5-6-9-32-9-58s-4-48-10-48c-5 0-10-7-10-15s-14-44-30-80c-17-36-30-74-30-83 0-10-9-28-20-40s-20-35-20-52-11-55-24-83c-14-29-34-86-46-127s-26-83-31-92c-5-10-9-27-9-38s-4-20-10-20c-5 0-10-9-10-20s-4-20-10-20c-5 0-10-13-10-29 0-17-4-32-9-35-4-3-14-27-21-53-7-27-17-52-21-57-5-6-9-20-9-33s-4-23-10-23c-5 0-10-16-10-35s-4-35-9-35-14-13-21-29c-15-37-28-40-186-48-93-4-133-3-138 6-4 6-14 11-22 11s-37 15-64 33l-50 32v79c0 116-20 358-31 378-5 10-9 25-9 33s-4 15-10 15c-5 0-10 14-10 30 0 17-4 30-10 30-5 0-10 9-10 20s-4 20-10 20c-5 0-10 9-10 19 0 11-4 23-10 26-5 3-10 15-10 26 0 10-4 19-10 19-5 0-10 7-10 15s-4 15-8 15c-5 0-14 16-22 35s-17 35-22 35c-4 0-8 8-8 19 0 10-7 24-15 31s-15 19-15 26c0 8-4 14-10 14-5 0-10 9-10 19 0 11-4 23-10 26-5 3-10 17-10 30s-4 27-10 30c-5 3-10 17-10 31 0 13-4 24-10 24-5 0-10 9-10 20s-4 20-10 20c-5 0-10 11-10 25s-4 25-10 25c-5 0-10 9-10 20s-4 20-10 20c-5 0-10 9-10 20s-4 20-9 20-14 15-21 33c-6 17-16 40-21 49-5 10-9 26-9 36s-7 27-15 38c-8 10-15 27-15 37 0 9-4 17-10 17-5 0-10 11-10 25s-4 25-10 25c-5 0-10 11-10 24 0 14-4 28-10 31-5 3-10 19-10 36 0 16-4 29-10 29-5 0-10 14-10 30 0 17-4 30-10 30-5 0-10 10-10 23-1 28-23 114-33 123-4 4-7 16-7 26s-4 18-10 18c-5 0-10 9-10 19 0 11-4 21-8 23-16 6-62 98-62 123 0 14-4 25-10 25-5 0-10 8-10 18 0 22-22 72-32 72-5 0-8 11-8 25s-4 25-10 25c-5 0-10 13-10 29 0 17-4 33-10 36-5 3-10 15-10 26 0 10-4 19-10 19-5 0-10 9-10 20s-4 20-8 20c-11 0-47 77-56 118-4 17-12 32-17 32s-9 13-9 29c0 17-4 33-10 36-5 3-10 16-10 28 0 13-9 29-20 37s-20 20-20 26c0 7-14 24-30 37-17 14-30 30-30 36s-4 11-10 11-10 33-10 79c0 61-3 80-15 85-8 3-15 12-15 21 0 18-41 98-52 103-5 2-8 10-8 18s-4 14-10 14c-5 0-10 6-10 13 0 18-24 67-32 67-5 0-8 11-8 25s-4 25-10 25c-5 0-10 6-10 13s-9 32-20 55c-11 22-20 48-20 57 0 8-4 15-10 15-5 0-10 14-10 30 0 17-4 30-9 30-4 0-21 38-36 85s-31 85-36 85-9 11-9 25-4 25-10 25c-5 0-10 9-10 20s-4 20-10 20c-5 0-10 7-10 15s-4 15-10 15c-5 0-10 11-10 25s-4 25-10 25c-5 0-10 6-10 13s-9 23-20 35-20 28-20 37c0 8-4 15-10 15-5 0-10 11-10 25s-4 25-10 25c-5 0-13 12-16 28-7 28-42 103-53 112-7 5-22 37-43 88-7 17-15 32-19 32-3 0-11 16-19 35s-17 35-22 35c-4 0-8 6-8 13 0 18-24 67-32 67-5 0-8 9-8 20s-4 20-8 20-16 20-26 43c-10 24-26 50-37 58-13 9-19 25-19 51 0 50-37 108-68 108-28 0-64 31-44 38 14 4 18 122 4 122-5 0-15 11-22 25-12 23-19 25-77 25-35 0-63-3-63-7 0-5-13-21-28-38-34-36-82-108-105-155-10-19-26-46-36-60-35-47-98-146-112-178-8-18-17-32-20-32s-21-30-40-67c-19-38-39-74-45-80-7-7-22-35-35-63-12-27-26-50-31-50-4 0-8-6-8-14s-4-16-8-18c-4-1-23-23-42-48-19-24-45-56-58-70-12-14-25-33-28-42-3-10-9-18-13-18-5 0-21-19-37-42-16-24-31-45-34-48s-29-36-57-75c-28-38-63-81-78-95-14-13-36-40-48-60-11-19-29-42-39-51s-18-21-18-27-13-35-30-65c-16-30-30-62-30-71s-4-16-10-16c-5 0-10-6-10-13s-8-20-17-28c-51-46-142-150-148-168-3-12-11-21-16-21s-9-9-9-20-4-20-8-20c-11 0-32-46-32-70 0-11-4-20-9-20s-13-9-16-20-12-26-18-32c-7-7-25-33-42-58-16-25-37-53-46-63-9-9-22-30-30-45s-16-29-19-32c-12-12-30-51-30-65 0-8-4-15-10-15-5 0-10-7-10-15s-4-15-10-15c-5 0-10-7-10-15s-4-15-10-15c-5 0-10-7-10-14 0-8-11-27-25-42s-25-31-25-36-9-18-20-30-20-28-20-35-4-13-8-13-23-26-42-57c-19-32-45-70-58-85-60-66-106-108-120-108-4 0-16-14-27-30s-23-30-27-30c-5 0-8-7-8-15s-4-15-10-15c-5 0-10-6-10-13s-20-32-45-57c-136-134-178-181-226-252-23-35-48-67-56-71-23-14-64-60-80-92-9-16-21-34-27-41s-22-27-36-45-35-43-47-56c-13-13-23-27-23-31s-15-23-33-43c-17-19-38-47-46-62s-18-27-23-27c-4 0-8-6-8-13 0-18-24-67-32-67-5 0-8-9-8-20s-4-20-10-20c-5 0-10-7-10-15s-4-15-10-15c-5 0-10-5-10-11s-16-33-35-59-35-53-35-59-4-11-10-11c-5 0-10-4-10-10 0-17-68-114-118-168-27-29-60-76-73-105-13-28-26-54-30-57-5-5-42-70-93-165-11-22-24-42-28-43-5-2-8-17-8-33s-4-29-10-29c-5 0-10-9-10-20s-5-20-10-20c-6 0-16-11-22-25l-11-25-24 22c-13 12-23 32-23 45s-4 23-10 23-10 44-10 113c0 62-4 117-9 123-5 5-10 86-11 179-1 94-6 240-11 325-10 188-24 1106-18 1280 4 136 4 141 1 405-2 181 5 255 27 310 7 17 15 73 18 125 4 87 23 160 41 160 9 0 57 93 77 149 8 24 15 61 15 83 0 42-23 108-43 120-19 12-27 496-9 568 7 30 18 75 24 100s12 119 13 210c3 149 8 223 21 287 2 12 14 31 25 42 18 17 21 28 17 72-3 28-10 54-16 58-23 14-32 68-32 204-1 92-6 155-14 180-13 35-13 37 8 37 35 0 46 20 46 85-1 62-8 74-79 115-16 9-18 53-3 83 21 44 32 91 32 137 0 48 21 113 40 125 15 10 12 136-4 154-21 25-29 88-13 98 8 4 22 25 32 45 16 34 17 68 11 385-8 490-23 942-35 1048-16 146-14 290 4 305 8 7 15 24 15 39s6 33 13 40c16 16 15 247-2 264-6 6-11 22-11 34 0 13-9 36-19 51-18 25-25 49-22 80 1 7 15 12 35 12 51 0 66 9 66 39 0 14 7 35 15 45s24 48 36 83c20 60 21 80 17 330-2 202-6 267-15 271-7 2-13 10-13 18s-4 14-10 14c-5 0-10 16-10 35s-4 35-10 35c-5 0-10 18-10 39 0 22-4 43-10 46-19 12-12 93 10 115 29 29 28 133-2 192-13 23-26 45-30 46-5 2-8 17-8 33s-4 29-10 29c-5 0-10 18-10 40 0 30 7 47 25 66 14 14 28 39 32 55 3 16 10 32 14 35 11 6 11 278 0 354-10 67 3 85 52 75 40-8 107-37 107-47 0-12 108-9 115 2 3 6 14 10 23 10s35 20 57 44 43 44 48 45c4 0 7-26 7-58zm11146-4998c-11-11-17 4-9 23 7 18 8 18 11 1 2-10 1-21-2-24z" transform="translate(-50.516 -63.4) scale(.0233)"/>
  <path fill="none" d="M11923 13213c-11-4-20-83-10-83 1 0 27-9 57-20s67-20 82-20c16 0 28-4 28-10 0-5 18-10 40-10h40v120h-44c-24 0-57 7-72 15-28 14-95 19-121 8z" transform="translate(-50.585 -63.476) scale(.0233)"/>
  <path fill="none" d="M9630 7145v-55h120v49c0 54-9 61-82 61h-38v-55z" transform="translate(-50.572 -63.44) scale(.0233)"/>
  <path fill="none" d="M7270 6305c0-45 0-45 35-45s35 0 35 45 0 45-35 45-35 0-35-45z" transform="translate(-50.558 -63.436) scale(.0233)"/>
  <path fill="#f6e30e" d="M13210 13251c0-5-10-13-22-17-13-4-39-24-59-45-34-37-40-39-125-49-140-16-174-14-174 10 0 20-6 20-367 19-203-1-360-3-350-6 19-5 25-63 6-63-5 0-7 5-4 10 3 6 1 10-4 10-6 0-11-11-11-25s6-25 13-25c18 0 67-24 67-32 0-5 18-8 40-8s40-4 40-10 48-10 124-10c73 0 127-4 131-10s58-10 130-10h123l11 33c9 25 14 29 21 17 5-8 10-25 10-37 0-19 7-22 58-29 31-4 59-11 63-15 3-5 26-13 52-18 25-4 58-16 71-25 21-13 54-16 188-15 90 0 190 6 223 13 80 17 93 39 94 162l1 92-56 27c-49 24-62 26-119 20-61-6-64-6-67 17-3 20-9 23-55 26-30 2-53-1-53-7z" transform="translate(-50.586 -63.475) scale(.0233)"/>
  <path fill="#f6e30e" d="M3343 12923c-24-3-33-9-33-24 0-10-4-19-10-19s-10-26-10-59-4-63-10-66c-13-8-13-210 0-295 6-36 10-280 11-542 0-287 4-480 10-483 5-4 9-19 9-36 0-28 16-67 33-80 4-3 8-21 9-41 1-29-7-43-50-87-38-39-52-61-52-81 0-16-4-30-10-32s-11-86-12-218-5-220-12-229c-22-29-36-89-36-163 0-45-4-78-11-80-6-2-14-42-19-88-5-47-14-107-20-135-8-36-8-197 0-590 21-976 31-2495 18-2685-5-80-12-253-14-385-3-174-9-253-19-287-8-26-15-52-15-57 0-6-9-30-19-54-11-23-23-62-26-87-17-110-4-402 21-456 19-43 30-169 15-178-6-4-11-34-11-71 0-74 2-75 98-75 64 0 69 2 107 38 23 20 52 53 65 72 14 19 32 44 42 54 10 11 18 25 18 31 0 16 24 65 32 65 3 0 9 13 13 28 3 15 15 34 25 42 11 8 20 17 20 21 0 3 19 26 42 51 93 98 118 127 118 137 0 6 7 11 15 11s28 14 43 31c15 16 42 46 60 65 17 19 32 38 32 43 0 4 14 22 30 39 17 18 30 35 30 38 0 7 58 82 115 148 14 16 31 44 56 90 11 21 29 48 40 59 10 12 19 25 19 30 0 6 10 24 23 41s34 52 46 79c13 26 27 47 32 47s9 6 9 13c0 6 18 30 40 52 21 22 39 46 40 53 0 6 4 12 8 12 5 0 15 12 23 27 18 36 42 64 107 129 28 28 52 54 52 58 0 5 38 50 83 97 9 11 17 23 17 28 0 4 26 35 58 69 31 33 80 86 107 118 63 71 67 75 102 105 15 13 39 40 53 59 13 19 32 44 42 54 10 11 18 24 18 28 0 5 13 23 30 41 16 18 30 35 30 39s7 16 14 25c8 10 24 29 34 43 18 22 22 23 46 12 32-14 78-16 92-3 5 5 20 11 34 13 19 2 32 17 53 58 16 30 32 57 36 60s18 29 31 57c13 29 27 53 32 53 4 0 8 11 8 24 0 14 4 28 10 31s10 17 10 30 5 27 10 30 10 15 10 26c0 10 5 19 10 19 6 0 10 8 10 19 0 24 27 88 40 96 5 3 10 17 10 29 0 41 47 173 70 196 3 3 11 17 19 33 8 15 18 27 23 27 4 0 8 8 8 18 0 30 21 42 71 42 29 0 53 6 63 15 8 8 18 15 23 15 24 0 61 53 77 111 10 35 27 83 37 106 11 24 19 53 19 66 0 32 20 87 31 87 5 0 9 5 9 11 0 23 36 38 90 39 52 0 81-11 116-45 12-12 25-78 26-135 0-19 2-63 5-97 5-62 5-63 34-63 16 0 29-5 29-11 0-11 54-8 97 6 21 7 21 4 28-104 4-61 12-114 16-117 5-3 9-18 9-35 0-16 5-29 10-29 6 0 10-9 10-20s4-20 8-20c5 0 14-16 22-35s17-35 22-35c4 0 8-9 8-19s6-21 14-24c15-6 46-62 46-84 0-7 3-13 8-13 4 0 20-29 36-65 15-36 32-65 37-65s9-9 9-20 5-20 10-20c6 0 10-16 10-35s5-35 10-35c6 0 10-13 10-30 0-16 5-30 10-30 6 0 10-27 10-60s4-60 8-60 13-32 20-71c7-38 21-88 32-109 11-22 20-53 20-70 0-16 5-30 10-30 6 0 22-27 37-60 14-33 30-60 34-60 5 0 9-8 9-18s4-22 9-27c4-6 14-31 21-58 7-26 17-50 21-53 5-3 9-34 9-70s4-64 10-64 10-13 10-30c0-16 3-30 8-30 8 0 23-34 42-97 7-24 17-43 22-43 4 0 8-5 8-11 0-16 72-163 82-167 4-2 8-12 8-23 0-10 5-19 10-19 6 0 10-9 10-21 0-26 18-44 64-63 20-8 36-22 36-30 0-9 4-16 9-16 13 0 34-57 26-70-11-18 6-180 19-180s36-46 36-73c0-10 9-21 20-24 16-4 20-14 20-44 0-32 3-39 20-39 14 0 20-7 20-22 0-13 9-34 20-48s20-31 20-38 6-15 14-18 21-23 30-44c8-21 20-41 25-44 5-4 12-19 16-35 3-16 15-37 26-47 10-9 19-27 19-38 0-12 9-28 20-36s20-25 20-37c0-13 4-23 8-23 5 0 20-21 33-47 13-27 27-50 32-51 4-2 7-9 7-17 0-19 50-169 59-175 4-3 15-26 25-53 10-26 24-54 32-61 8-8 14-21 14-29 0-9 3-17 8-19 4-1 18-25 31-53 13-27 27-58 32-67 5-10 9-25 9-33s4-15 8-15c10 0 42-65 42-84 0-7 9-25 20-39s20-33 20-42c0-19 40-98 53-103 4-2 7-10 7-18s5-14 10-14c6 0 10-9 10-19 0-23 36-87 66-117 11-12 26-35 33-53 12-28 18-31 57-31 35 0 45 4 56 24 10 20 79 108 150 195 20 24 78 140 78 155 0 9 5 16 10 16 6 0 10 6 10 13s13 40 30 72c16 32 30 63 30 67 0 5 9 18 20 30s20 28 20 35 4 13 8 13c5 0 19 19 31 42 19 37 53 90 78 123 17 22 53 98 53 111 0 8 3 14 8 14 4 0 21 21 37 45 17 25 33 45 37 45s16 19 27 43c11 23 24 49 29 57 23 39 32 61 32 76 0 14 53 101 70 114 3 3 18 28 31 56 14 28 35 65 47 82 12 16 22 38 22 49 0 10 9 29 20 43s20 32 20 41c0 20 23 69 33 69 4 0 7 9 7 20s5 20 10 20c6 0 10 16 10 35s5 35 10 35c6 0 10 16 10 35s3 35 8 35c9 0 25 39 43 102 7 27 17 48 21 48s8 8 8 18c0 9 11 35 25 57 13 22 25 46 25 53s9 31 19 55c11 23 25 59 32 80 7 20 17 37 21 37s8 18 8 40 5 40 10 40c6 0 10 13 10 29 0 17 5 33 10 36 6 3 10 19 10 35 0 15 9 49 20 75s20 57 20 70 4 27 10 30 10 26 10 51c0 64 23 94 71 94 28 0 39 4 39 15 0 8-7 15-15 15-9 0-15 9-15 23 0 19 8 26 39 35 21 7 44 12 50 12 7 0 21 9 33 20s28 20 35 20 13 5 13 10c0 6 5 10 11 10 27 0 39 30 39 99 0 41-4 71-10 71-5 0-10 9-10 20s-4 20-9 20c-17 0-21 33-6 50 8 9 15 22 15 28 0 7 4 12 9 12s11 12 14 28c7 36 62 99 94 107 14 3 44 24 67 45l41 39 4 138c2 82-2 167-9 211-12 67-17 77-62 122-27 27-62 57-79 67-16 10-29 21-29 25s-9 8-20 8c-12 0-31 9-43 20s-51 39-87 63c-77 49-77 50-135 105-24 23-49 42-55 42-5 0-10 3-10 8 0 4-12 13-27 19-16 7-50 31-78 53-27 22-60 44-73 50-12 5-25 17-28 25-4 8-11 15-18 15-6 0-18 8-27 18-8 9-30 29-49 44s-42 33-51 40c-27 22-109 125-109 137 0 6-4 11-8 11-5 0-15 11-22 25-7 13-21 27-32 31-10 3-18 12-18 20s-4 14-10 14c-21 0-125 119-156 178-20 38-20 40-3 29 11-7 19-15 19-19 0-5 7-8 15-8s15-4 15-10c0-5 4-10 10-10 20 0 177-145 185-171 4-10 10-19 15-19 4 0 30-22 57-50 26-27 51-50 55-50 8 0 23-12 86-67 20-18 40-33 44-33s18-11 32-25 31-25 38-25c8 0 20-9 28-20s22-20 32-20 18-4 18-10c0-5 11-10 25-10s25-4 25-10c0-5 6-10 13-10s22-8 33-17c10-10 31-24 47-32 15-8 27-18 27-21 0-4 13-13 29-20 16-6 32-18 35-26s12-14 21-14c8 0 15-4 15-10 0-5 7-10 15-10s15-4 15-9 14-14 30-21c17-7 30-16 30-21s8-9 19-9c10 0 21-9 24-20 3-12 14-20 27-20s31-10 41-21c13-15 34-23 69-27 46-4 50-3 61 22 7 14 18 26 24 26 17 0 45 44 45 71 0 24 26 48 51 49 18 0 79 60 79 78 0 7 5 12 10 12 14 0 12 63-2 91-24 44-43 65-90 97-78 53-98 82-58 82 11 0 20 5 20 10 0 6 7 10 15 10s15 5 15 10c0 6 7 10 15 10s15 5 15 10c0 6 6 10 13 10 20 0 46 61 49 114 3 44 6 51 36 66 18 10 44 30 57 44s29 26 35 26c22 0 68 63 85 116 9 30 20 54 23 54 10 0 32 50 32 71 0 34 11 50 26 38 9-7 37-10 77-7 34 3 68 3 75 1 9-4 12-42 12-149 0-89 4-144 10-144s10-12 10-26c0-27 9-39 53-67 15-10 27-22 27-27 0-12-72-90-83-90s-31-21-45-47c-21-38-15-218 9-310 12-46 26-83 31-83 4 0 8-8 8-19 0-21 26-31 81-31 27 0 42-7 62-30 24-26 27-38 27-100 0-69 18-150 32-150 5 0 8-7 8-15s5-15 10-15c6 0 10-6 10-13s9-19 20-27 20-22 20-30c0-9 9-26 20-38s20-28 20-37c0-8 4-15 8-15 5 0 15-12 23-27 8-16 24-36 37-46 12-10 22-26 22-36 0-22 23-71 33-71 4 0 7-11 7-25s5-25 10-25c6 0 10-9 10-19 0-11 4-21 8-23 7-3 56-100 107-210 10-21 21-38 26-38s9-8 9-18c0-22 22-72 33-72 4 0 7-7 7-15 0-9 22-39 50-67 27-28 50-55 50-60s12-22 28-37c15-15 36-46 47-69s23-42 28-42c4 0 7-8 7-18s9-24 20-32 20-22 20-31c0-10 4-19 8-21 4-1 21-23 38-48 70-104 87-127 115-157 16-18 29-35 29-39 0-3 14-19 30-34s30-35 30-42c0-8 9-23 20-33s20-23 20-29c1-36 147-146 194-146 9 0 16-4 16-10 0-5 7-10 15-10s23-4 33-9c9-5 34-17 54-26 21-9 50-27 65-40 47-42 51-45 80-56 73-30 93-41 93-49 0-6 11-10 23-10 13 0 26-3 30-6 9-9-19-34-37-34-9 0-16-4-16-10 0-5-15-12-32-15-18-4-49-20-68-36-35-30-35-30-35-114 0-74 3-86 23-103 12-11 22-27 22-36s3-16 8-16c8 0 19-20 47-82 10-21 21-38 26-38s9-6 9-13c0-8 9-22 20-32s20-25 20-34 9-23 20-31 20-20 20-27 5-13 10-13c6 0 10-7 10-17 0-16 25-53 90-132 11-13 20-30 20-38 0-7 3-13 8-13 8 0 32-49 32-67 0-7 5-13 10-13 6 0 10-9 10-20s5-20 10-20c6 0 10-8 10-17 0-10 9-29 20-43s20-29 20-35c0-5 18-34 40-63s40-55 40-58c0-9 28-34 38-34 5 0 15-13 22-30 7-16 16-30 21-30s9-7 9-15 5-15 10-15c6 0 10-9 10-20s5-20 10-20c6 0 10-5 10-12 0-6 9-21 19-32 11-12 26-32 33-46s33-55 58-93c44-66 46-67 85-65l40 3 6 95c3 52 10 104 16 115 38 69 39 118 11 365-10 93-13 280-6 433 2 59-13 140-32 162-9 11-34 15-102 15-113 0-238 38-238 73 0 5-8 16-17 24-16 11 0 13 112 9 72-3 149-8 171-11 26-4 44-3 48 4 4 6 14 11 22 11 25 0 44 26 44 59 0 17 5 31 10 31 6 0 10 23 10 50 0 28 4 50 9 50s11 19 14 43c3 23 12 78 21 122 29 154 38 266 36 492-1 125-1 233-1 238 1 6 17 28 36 50 33 39 35 43 35 123 0 45 4 82 9 82 21 0 25 161 18 850-1 129 1 242 5 251s8 158 9 330c1 173 6 319 11 325 16 21-10 1917-27 1944-11 18-7 282 4 293 7 7 11 65 11 145v134l40 45 40 46v193c0 123-4 194-10 194s-10 48-10 125-4 125-10 125c-5 0-10 14-10 30 0 17-4 30-10 30-5 0-10 9-10 20 0 10-15 35-34 53-45 46-114 58-280 50-106-5-129-3-150 11-22 14-62 16-301 16-177 0-275-4-275-10 0-5-25-10-55-10s-55 4-55 10c0 12-658 25-1050 21-47 0-177-1-290 0-113 0-416-2-675-5-511-7-513-7-640-67-67-32-104-32-187 2-26 10-56 19-67 19-12 0-21 3-21 8 0 4-19 17-43 30l-43 23-425-2c-613-3-1443 26-1458 50-4 5-132 9-287 10-281 2-281 2-335-24-71-33-82-32-123 10-33 32-40 35-96 35-53 0-64-3-92-30-17-16-34-30-38-30s-25 18-46 40c-39 40-39 40-115 40-71 0-78-2-107-30-30-28-37-30-109-30-76 1-113 13-113 38 0 29-110 31-151 1-28-20-29-20-29-1 0 10-10 30-22 44-23 25-23 25-253 32-275 9-500 29-511 47-3 5-23 9-45 9-52 0-79-27-79-79 0-32 7-45 37-75 21-20 41-36 45-36s8-4 8-10c0-5-7-10-15-10s-15 5-15 10c0 6-7 10-15 10s-15 5-15 10c0 6-6 10-14 10s-16 4-18 8c-4 9-93 72-103 72-4 0-13 6-20 14-9 8-50 15-118 18-98 5-177 27-177 48 0 4-13 13-30 20-16 7-30 16-30 20 0 11-84 22-205 26-60 3-159 6-220 9-60 3-204 7-319 10-131 3-212 9-216 15-7 12-126 21-177 13z" transform="translate(-50.533 -63.425) scale(.0233)"/>
  <path d="M3255 13884c-27-30-58-54-67-54s-20-4-23-10c-7-12-52-14-57-2-8 19-74 43-132 49-95 9-102-1-88-122 14-110 16-301 3-309-4-3-11-19-14-35-4-16-18-41-32-56-24-23-27-33-26-93 0-37 5-68 11-70 5-2 10-16 10-32s3-30 8-32c4-1 17-23 30-46 28-55 29-105 2-132-16-16-20-33-20-94 0-41 5-78 10-81 6-3 10-24 10-46 0-21 5-39 10-39 6 0 10-16 10-35s5-35 10-35c6 0 10-6 10-14s6-16 13-18c18-7 24-471 6-513-6-16-14-39-16-50-2-10-9-23-16-27-6-4-8-8-3-8 4 0 1-11-8-25-9-13-16-35-16-49 0-27-16-36-63-36-25 0-36-7-48-28-14-24-14-31-3-47 8-10 14-26 14-36 0-9 9-28 20-42s20-36 20-49 5-29 10-34c16-16 18-190 3-205-7-7-13-25-13-40s-7-32-15-39c-12-10-15-39-14-144 0-72 5-171 10-221 11-99 26-529 35-1018 6-290 5-320-11-355-10-20-25-42-33-48-18-13-26-80-12-89 6-4 10-17 10-29 0-13 7-29 15-36 17-14 21-85 5-95-19-12-40-77-40-125 0-47-11-93-33-139-18-36-15-130 3-141 58-34 79-56 80-85 0-35-15-55-43-55-23 0-54-29-41-38 27-19 37-74 41-222 4-147 15-220 33-220 16 0 22-54 7-65-40-30-48-78-52-320-3-165-7-206-38-327-22-85-10-607 15-631 33-33 41-82 23-137-18-53-63-141-78-151-18-13-37-63-37-99 0-22-4-50-10-64-6-16-6-26 0-26 10 0 4-48-12-95-16-46-30-125-31-175v-310c0-146 0-299-1-340 0-175 15-1137 19-1155 2-11 7-144 11-295 3-151 10-279 15-284 5-6 9-61 9-123 0-69 4-113 10-113s10-11 10-23c0-24 59-87 80-87 6 0 20 16 31 35 12 19 25 35 30 35s9 9 9 20 5 20 10 20c6 0 10 13 10 29s3 31 8 33c4 2 17 21 28 43 51 95 88 160 93 165 4 3 17 29 30 57 13 29 46 76 73 105 50 54 118 151 118 168 0 6 5 10 10 10 6 0 10 5 10 11s16 33 35 59 35 53 35 59 5 11 10 11c6 0 10 7 10 15s5 15 10 15c6 0 10 9 10 20s3 20 8 20c8 0 32 49 32 67 0 7 4 13 8 13 5 0 15 12 23 27s29 43 46 62c18 20 33 39 33 43s10 18 23 31c12 13 33 38 47 56s30 38 36 45 18 25 27 41c16 32 57 78 80 92 8 4 33 36 56 71 48 71 90 118 226 252 25 25 45 50 45 57s5 13 10 13c6 0 10 7 10 15s3 15 8 15c4 0 16 14 27 30s23 30 27 30c14 0 60 42 120 108 13 15 39 53 58 85 19 31 38 57 42 57s8 6 8 13 9 23 20 35 20 25 20 30 11 21 25 36 25 34 25 42c0 7 5 14 10 14 6 0 10 7 10 15s5 15 10 15c6 0 10 7 10 15s5 15 10 15c6 0 10 7 10 15 0 14 18 53 30 65 3 3 11 17 19 32s21 36 30 45c9 10 30 38 46 63 17 25 35 51 42 58 6 6 15 21 18 32s11 20 16 20 9 9 9 20c0 24 21 70 32 70 4 0 8 9 8 20s4 20 9 20 13 9 16 21c6 18 97 122 148 168 9 8 17 21 17 28s5 13 10 13c6 0 10 7 10 16s14 41 30 71c17 30 30 59 30 65s8 18 18 27 28 32 39 51c12 20 34 47 48 60 15 14 50 57 78 95 28 39 54 72 57 75s18 24 34 48c16 23 32 42 37 42 4 0 10 8 13 18 3 9 16 28 28 42 13 14 39 46 58 70 19 25 38 47 42 48 4 2 8 10 8 18s4 14 8 14c5 0 19 23 31 50 13 28 28 56 35 63 6 6 26 42 45 80 19 37 37 67 40 67s12 14 20 32c14 32 77 131 112 178 10 14 26 41 36 60 23 47 71 119 105 155 15 17 28 33 28 38 0 4 15 7 33 7 26 0 37-6 47-25 7-14 17-25 22-25 4 0 8-13 8-30 0-16-4-30-10-30-15 0-12-70 4-86 8-8 25-14 38-14 30 0 68-58 68-105 0-25 8-44 25-61 14-14 23-29 20-34-2-4 2-13 10-20s15-19 15-26c0-8 5-14 10-14 6 0 10-9 10-20s3-20 8-20c8 0 32-49 32-67 0-7 4-13 8-13 5 0 14-16 22-35s16-35 19-35c4 0 12-15 19-32 22-53 37-83 44-88 3-3 8-12 10-20s9-21 16-28c7-8 10-18 7-23-4-5-1-9 4-9 6 0 11-9 11-19 0-11 7-26 15-35 8-8 15-24 15-35 0-12 5-21 10-21 6 0 10-7 10-15 0-9 9-25 20-37s20-28 20-35 5-13 10-13c6 0 10-11 10-25s5-25 10-25c6 0 10-7 10-15s5-15 10-15c6 0 10-9 10-20s5-20 10-20c6 0 10-11 10-24s5-26 10-28c6-2 12-13 14-25 3-12 10-32 17-45s12-25 11-28c-3-11 22-70 30-70 4 0 8-13 8-30 0-16 5-30 10-30 6 0 10-7 10-15 0-9 9-35 20-57 11-23 20-48 20-55s5-13 10-13c6 0 10-11 10-25s3-25 8-25c8 0 32-49 32-67 0-7 5-13 10-13 6 0 10-6 10-14s3-16 8-18c11-5 52-85 52-103 0-9 7-18 15-21 12-5 15-24 15-85 0-46 4-79 10-79s10-5 10-11 14-22 30-36c17-13 30-30 30-37 0-6 9-18 20-26s20-24 20-37c0-12 5-25 10-28 6-3 10-22 10-41 0-21 4-33 10-29 6 3 11-1 11-9 2-28 4-32 28-84 14-29 28-52 33-52 4 0 8-9 8-20s5-20 10-20c6 0 10-9 10-19 0-11 5-23 10-26 6-3 10-19 10-36 0-16 5-29 10-29 6 0 10-11 10-25s3-25 8-25c10 0 32-50 32-72 0-10 5-18 10-18 6 0 10-11 10-25 0-21 42-111 59-125 3-3 7-12 9-20s8-16 13-18 9-12 9-21c0-10 3-21 7-25 10-9 32-95 33-123 0-13 5-23 10-23 6 0 10-13 10-30 0-16 5-30 10-30 6 0 10-13 10-29 0-17 5-33 10-36 6-3 10-17 10-31 0-13 5-24 10-24 6 0 10-11 10-25s5-25 10-25c6 0 10-8 10-17 0-10 7-27 15-37 8-11 15-29 15-41s3-25 8-29c4-4 7-11 7-14 0-17 28-72 36-72 5 0 9-9 9-20s5-20 10-20c6 0 10-9 10-20s5-20 10-20c6 0 10-11 10-25s5-25 10-25c6 0 10-9 10-20s5-20 10-20c6 0 10-11 10-24 0-14 5-28 10-31 6-3 10-17 10-30s5-27 10-30c6-3 10-15 10-26 0-10 5-19 10-19 6 0 10-6 10-14 0-7 7-19 15-26s15-21 15-31c0-11 5-19 11-19 5 0 8-4 5-9s1-14 9-21 12-16 9-21 2-12 10-15c9-3 16-12 16-20s5-14 10-14c6 0 10-9 10-19 0-11 5-23 10-26 6-3 10-15 10-26 0-10 5-19 10-19 6 0 10-9 10-20s5-20 10-20c6 0 10-13 10-30 0-16 5-30 10-30 6 0 10-7 10-15s4-23 9-33c11-20 31-262 31-378v-79l50-32c27-18 56-33 64-33s18-5 21-11c8-12 345-10 345 3 0 4 6 8 14 8 7 0 19 14 26 30 7 17 16 30 21 30s9 16 9 35 5 35 10 35c6 0 10 11 10 24 0 14 4 28 10 31 5 3 10 15 10 26 0 10 5 19 11 19s9 6 6 14c-3 7 1 26 9 41s14 38 14 51 5 24 10 24c6 0 10 9 10 20s5 20 10 20c6 0 10 10 10 23s5 28 11 34 12 21 14 34c6 41 42 152 64 196 12 23 21 56 21 73s9 40 20 52 20 30 20 40c0 9 14 47 30 83 17 36 30 72 30 80s5 15 10 15c6 0 10 22 10 48s5 53 10 58c6 6 12 28 14 50 3 21 9 52 15 67 6 16 8 39 5 52-3 14 1 33 11 49 10 14 15 26 11 26-3 0-1 12 5 26 5 15 12 43 14 63 8 53 24 110 48 161 24 52 84 142 102 152 7 4 39 28 73 53 33 25 65 45 70 45 6 0 23 11 38 25 20 18 38 25 69 25 44 0 85 30 85 62 0 9 10 36 21 60 12 23 26 54 32 68 5 14 13 32 18 40 32 54 49 91 49 105 0 8 5 15 10 15 6 0 10 5 10 11 0 28 33 119 50 139 11 13 20 31 20 42 0 10 5 18 10 18 6 0 10 16 10 35s5 35 10 35c6 0 10 13 10 29 0 17 4 33 10 36 5 3 10 17 10 31 0 13 5 24 10 24 6 0 10 16 10 35s4 43 9 53c11 23 42 112 48 140 3 12 9 22 14 22s9 7 9 15c0 18 32 89 43 93 4 2 7 12 7 23 0 10 5 19 10 19 6 0 10 9 10 20 0 28 23 100 32 100 5 0 8 9 8 20s5 20 10 20c6 0 10 13 10 29 0 17 5 33 10 36 6 3 10 17 10 30s5 27 10 30c6 3 10 19 10 35s5 32 10 35c6 3 10 13 10 22 0 13 44 114 81 185 5 10 9 29 9 43s4 25 9 25c12 0 22 57 28 160 4 76 7 86 31 107 15 13 33 23 40 23s10 5 7 10c-3 6 5 10 19 10 13 0 26 4 28 8s26 15 53 24c33 10 51 22 54 34 2 11 6 21 10 24s14 21 23 40 28 50 42 69 26 43 26 52c0 10 7 25 16 34s25 39 36 68c21 55 47 87 73 87 8 0 15 9 15 20 0 21 6 23 55 20 18 0 38 6 48 17 57 57 97 107 97 119s12 14 52 12c47-3 52-6 59-30 4-16 3-30-2-34-5-3-9-14-9-25 0-16-7-19-52-19-41 0-60-6-83-24-28-23-30-28-29-90 2-97 7-108 64-134 45-21 106-74 165-143 12-13 32-31 45-39 36-22 100-85 100-98 0-7 5-12 10-12 6 0 10-9 10-20s5-20 10-20c6 0 10-8 10-17 0-10 9-29 20-43s20-31 20-38 7-15 15-18c8-4 15-15 15-26 0-10 5-16 10-13 6 3 10-3 10-14 0-12 5-21 10-21 6 0 10-12 10-26s4-23 10-19 10-5 10-19 5-26 10-26c6 0 10-7 10-15s5-15 10-15c6 0 10-7 10-15s5-15 10-15c6 0 10-7 10-15 0-15 19-56 31-65 4-3 19-33 35-67 15-35 31-63 36-63 4 0 8-7 8-15s5-15 10-15c6 0 10-5 10-10 0-6 14-24 30-42 17-17 30-37 30-44 0-8 5-14 10-14 6 0 10-7 10-15s5-15 10-15c6 0 10-7 10-16s8-28 18-42c11-15 36-61 58-102 21-41 42-76 46-78 5-2 8-9 8-15 0-7 14-26 30-44 17-18 30-35 30-39s8-14 18-23c9-9 24-29 32-46 8-16 20-37 26-45 7-8 13-19 14-25 3-21 35-80 47-88 7-4 13-14 13-20 0-7 9-19 20-27s20-20 20-27 5-13 10-13c6 0 10-9 10-20s5-20 10-20c6 0 10-9 10-21 0-11 5-17 10-14 6 3 10-2 10-13 0-10 8-27 18-38 10-10 21-27 25-36 3-10 11-18 17-18s8-4 5-10c-3-5-2-10 3-10s15-13 21-28c7-15 23-40 36-55 14-14 25-29 25-32s9-15 20-27 26-34 32-50c7-15 16-28 20-28 5 0 8-5 8-10 0-6 9-20 20-32s20-27 20-34 10-24 23-38c59-65 67-76 67-86 0-5 5-10 10-10 6 0 10-7 10-15s5-15 10-15c6 0 10-7 10-15s5-15 10-15c6 0 10-6 10-13s8-22 18-33c9-10 23-31 31-46 8-16 18-28 23-28 4 0 8-9 8-20s4-20 8-20 21-27 37-60c17-33 33-60 38-60 4 0 7-11 7-25s5-25 10-25c6 0 10-7 10-15s5-15 10-15c6 0 10-9 10-20s5-20 10-20c6 0 10-7 10-15s5-15 10-15c6 0 10-9 10-20s5-20 10-20c6 0 10-7 10-15s5-15 10-15c6 0 10-6 10-12 0-11 12-28 59-84 5-7 7-14 4-18-3-3 2-8 11-12 9-3 16-12 16-20s5-14 10-14c6 0 10-7 10-15s5-15 10-15c6 0 10-7 10-15s5-15 10-15c6 0 10-5 10-11 0-7 8-19 18-28s29-32 42-51 29-40 35-47c30-36 33-41 28-47-4-3-2-6 4-6s13-8 17-18c3-9 22-44 41-77s38-67 42-75c3-8 9-17 12-20 10-8 42-64 48-82 3-10 9-18 14-18s9-6 9-12c0-7 19-31 41-53s48-52 57-68c9-15 20-27 24-27s8-6 8-13 9-19 20-27 20-19 20-25c0-5 34-43 74-83 41-40 85-87 98-105 36-51 117-126 144-133 13-3 24-10 24-14 0-14 80-22 146-15l64 7 36 74c20 41 42 77 49 82 14 8 19 44 36 307 14 221 20 716 9 795-14 97-14 454-1 458 6 2 11 16 11 31s5 32 12 39c14 14 12 333-2 427-5 33-10 130-11 215-2 123 1 161 13 182 16 29 59 68 76 68 12 0 23 26 15 34-4 3-15 6-25 6s-18 5-18 10c0 6-13 10-30 10-18 0-30 5-30 13 0 7-9 19-20 27s-20 20-20 28c0 7-4 11-9 8s-12 26-15 64c-8 80 2 258 15 266 5 3 9 27 9 54s5 52 10 55c6 4 10 58 10 131 0 76 4 124 10 124s10 16 10 35 5 35 10 35c6 0 10 23 10 50 0 39-4 50-16 50-18 0-44 23-44 39 0 6-4 11-10 11-14 0-13 26 3 52 19 34 34 48 51 48 12 0 16 11 16 49 0 28-4 53-10 56-6 4-10 92-10 231 0 143 4 224 10 224s10 13 10 29c0 17 4 33 10 36 5 3 10 23 10 43 0 21 7 48 16 60 9 13 15 42 14 74-1 107 17 354 29 382 8 21 10 96 6 270-3 132-7 257-10 276-2 19-7 67-11 105-3 39-8 73-10 76-1 3-4 45-5 93-1 56-6 92-15 100-9 9-14 56-18 147-6 163-14 247-26 274-15 32-32 275-46 645-6 164 5 323 24 356 4 7 22 33 40 58 36 53 37 56 19 56-8 0-25 13-39 28l-25 29-9 294c-11 363-10 581 5 814 19 314 16 298 71 355 27 28 53 50 58 50s22 6 38 14 55 17 86 21c32 3 60 11 63 16 4 5 18 9 32 9 24 0 25 2 11 18-26 30-40 77-32 108 5 16 7 35 6 42-3 14 21 42 35 42 5 0 19 11 31 25s31 25 42 25c20 0 27 14 11 24-4 3-98 6-207 7-111 1-208 6-219 12-26 13-45 33-45 46 0 6-4 11-10 11-5 0-10 18-10 40s5 40 10 40c6 0 10 6 10 14 0 7 9 25 20 39s20 34 20 45c0 19 38 101 51 112 4 3 16 25 28 50 11 25 32 57 46 72s25 29 25 32 12 18 26 33c36 39 44 65 36 115-7 37-13 45-47 62-22 11-48 23-57 28-10 4-149 8-310 9-467 1-771 12-776 27-2 8-34 12-113 12-66 0-109 4-109 10s-11 10-25 10-25-4-25-10c0-5-9-10-19-10-11 0-23-9-26-20-6-17-15-20-76-20-38 0-72-1-76-2-5-1-24-5-43-11-27-7-794-21-955-18-93 2-148 9-154 20-5 8-63 11-215 9l-208-3-14-40c-7-22-14-53-14-70 0-37-33-55-101-55-45 0-48-2-51-27-2-22-9-29-30-31-14-2-42-19-62-38-30-30-41-34-86-34-27 0-58-4-68-9-41-21-122-31-252-31-87 0-140-4-140-10 0-12-306-14-314-2-7 12-274 25-411 21-89-3-549-3-670 0-180 5-1651-13-1653-20-5-13-269-12-277 1-3 6-15 10-27 10-11 0-22 8-25 20-3 11-13 20-22 20s-23-9-31-20c-14-20-50-28-50-12 0 5-12 15-27 23-16 8-35 23-44 33-15 18-32 20-210 22-129 1-195 6-197 13-2 6-23 11-47 11s-47 5-50 10c-3 6-17 10-31 10-13 0-24 5-24 10 0 6-9 10-20 10s-20 5-20 10c0 19-53 10-71-12-11-11-19-25-19-30 0-4-6-8-14-8s-16-7-19-15c-5-11-32-14-144-14-76 0-208-4-293-10-113-8-176-8-230 0-41 6-99 12-128 13s-58 8-64 14c-7 7-42 12-83 12-39 0-75 4-81 10-5 5-112 11-239 14-261 5-375 14-375 27 0 5-10 9-23 9s-27 4-32 9c-6 5-37 12-70 16-33 3-84 8-112 11-29 3-53 10-53 15s-9 9-20 9-28 4-38 9c-53 29-141 69-164 75-16 3-28 11-28 16 0 6-20 10-45 10s-45 5-45 10c0 6-9 10-19 10-11 0-23 5-26 10-3 6-19 10-36 10-16 0-29 5-29 10 0 6-16 10-35 10s-35-4-35-10c0-5-11-10-25-10-33 0-45 46-45 182 0 60-4 110-10 113-5 3-10 21-10 40s5 37 10 40c6 3 10 11 10 16 0 6-4 7-10 4-5-3-10-1-10 5 0 16-26 40-42 39-7 0-35-25-63-55zm10029-666c3-7 7-25 10-40 7-29 26-39 26-14 0 10 16 15 53 18 41 4 63 0 105-20l52-24v-58c0-57-21-118-44-125-36-12-107-19-233-22-138-4-143-3-182 21-22 14-48 25-58 24-45-3-53 2-53 33v31l-32-19c-18-10-45-17-59-15-23 3-28 9-33 44-4 22-5 42-3 45 2 2 61 4 130 5 70 0 124 5 121 10-3 4 5 8 17 8s37 17 58 39c20 21 46 41 59 45 12 4 22 12 22 17 0 14 40 11 44-3zm-1270-43c15-8 48-15 71-15 24 0 45-4 47-10s124-10 336-11c322 0 332-1 332-20 0-10-6-19-14-19s-22-18-32-40l-18-40h-92c-51 0-96 4-99 10s-29 10-56 10c-31 0-48 4-44 10s-8 10-30 10-34-4-30-10-13-10-45-10-49 4-45 10c6 9-30 15-64 10-8-1-17 2-20 7-12 16-51 33-76 33-15 0-24 4-20 10s-7 10-27 10c-31 0-133 31-146 45-7 7 17 25 33 25 6 0 23-7 39-15zm-8522-299c5-7 61-11 170-12 90-1 217-5 283-8 66-4 183-9 260-10 145-3 245-13 245-26 0-4 14-13 30-20 17-7 30-16 30-20 0-25 206-67 259-53 10 2 25-3 34-11 8-9 18-16 22-16 10 0 99-63 103-72 2-4 10-8 18-8s14-4 14-10c0-5 7-10 15-10s15-4 15-10c0-5 4-10 9-10 6 0 37-27 70-60s62-56 66-51c13 22-8 113-31 137-13 12-24 29-24 36s-16 24-35 38c-18 14-39 35-46 46-9 18-8 25 11 44 22 22 24 22 52 6 15-10 38-16 51-15 12 1 40 0 62-4 60-10 385-29 512-31 103-1 113-3 131-24 28-32 18-62-19-62-16 0-29-2-29-4s-3-11-6-20c-10-25 58-22 74 4 7 12 23 20 40 20 15 0 38 9 52 20 34 27 90 25 90-4 0-26 43-38 145-38s104 1 136 31c26 25 40 31 78 31 41 0 51-5 85-40 50-52 97-55 144-10 42 40 84 40 120 2 57-61 85-64 179-22 64 29 69 30 226 30 88 0 189-5 225-12 51-9 67-9 70 0 4 14 52 17 52 3 0-28 843-57 1508-52l373 3 45-23c24-13 44-27 44-31 0-5 10-8 23-8 12 0 41-9 64-20 23-10 74-22 113-26 65-6 75-4 133 23 129 62 130 62 642 69 259 3 549 5 645 5 176-1 265-1 575-1 94 1 295-2 449-5 229-5 281-9 293-21s30-14 87-8c39 4 72 11 74 15 2 5 115 9 250 9 205-1 250-3 267-16 16-12 50-15 170-13 83 1 167-2 188-6 44-9 107-65 107-95 0-11 5-20 10-20 6 0 10-13 10-30 0-16 5-30 10-30 6 0 10-48 10-125 0-78 4-125 10-125 7 0 9-59 8-166l-2-166-40-45-40-45 3-130c1-71-2-135-7-141-15-19-22-195-11-297 22-213 48-1934 29-1945-5-3-9-147-9-321-1-173-5-323-9-332-9-18-7-422 3-727 4-110 2-194-4-215-5-19-11-63-13-97-1-35-6-63-10-63-5 0-8-37-8-83 0-72-3-85-23-107-56-61-54-50-49-320 3-163 1-254-6-262-5-7-10-48-11-92-1-43-5-84-8-90-4-6-9-28-11-50s-8-48-13-57c-5-10-9-34-9-53 0-20-4-36-10-36-5 0-10-22-10-50 0-27-4-50-10-50-5 0-10-14-10-31 0-33-19-59-44-59-8 0-17-4-21-10s-15-6-31 0c-14 6-88 10-165 10-86 0-139 4-139 10s-9 10-20 10-20-4-20-10c0-5-13-10-30-10-16 0-30-3-30-7 0-5 27-23 60-42s60-40 60-47c0-35 95-66 230-73 99-6 105-7 116-31 23-49 35-120 23-141-11-21-7-299 5-399 31-244 30-275-5-342-5-10-9-25-9-33s-4-15-9-15c-6 0-9-36-8-82 1-47-2-83-8-85-9-2-83 99-113 157-7 14-22 34-33 46-10 11-19 26-19 32 0 7-4 12-10 12-5 0-10 9-10 20s-4 20-10 20c-5 0-10 7-10 15s-4 15-9 15-14 14-21 30c-7 17-17 30-22 30s-16 7-24 15c-9 8-13 15-9 15s-9 18-27 40c-19 21-40 52-48 67s-22 40-32 55c-10 14-18 33-18 42s-4 16-10 16c-5 0-10 9-10 20s-4 20-10 20c-5 0-10 6-10 13 0 18-24 67-32 67-5 0-8 6-8 13 0 8-9 25-20 38-65 79-90 116-90 132 0 10-4 17-10 17-5 0-10 6-10 13s-9 19-20 27-20 22-20 31-9 24-20 34-20 24-20 32c0 7-4 13-9 13s-16 17-26 38c-28 62-39 82-47 82-5 0-8 7-8 16s-10 25-22 36c-17 15-22 30-22 73-1 50 2 57 34 84 19 16 50 32 68 36 17 3 32 10 32 15 0 6 9 10 20 10s20 4 20 8 20 14 45 21 45 15 45 16c0 20-17 35-40 35-16 0-32 5-35 10-3 6-17 10-31 10-13 0-24 4-24 10 0 8-20 19-93 49-29 11-33 14-80 56-15 13-44 31-65 40-20 9-45 21-54 26-10 5-25 9-33 9s-15 5-15 10c0 6-7 10-16 10-47 0-193 110-194 146 0 6-9 19-20 29s-20 25-20 33c0 7-13 27-30 42-16 15-30 31-30 34 0 4-14 22-31 40-17 19-31 38-32 43 0 4-9 17-20 28-10 11-35 45-55 75s-39 57-44 58c-4 2-8 11-8 21 0 9-9 23-20 31s-20 22-20 32-3 18-7 18c-5 0-17 19-28 42s-32 54-47 69c-16 15-28 32-28 37s-18 27-40 50c-22 22-40 46-40 52s-4 8-10 5c-5-3-10 3-10 14 0 12-3 21-7 21-10 0-33 49-33 67 0 8-9 23-20 35-18 19-22 32-19 54 0 4-3 10-8 13s-27 42-48 86c-22 44-43 82-47 83-5 2-8 12-8 23 0 10-4 19-10 19-5 0-10 11-10 25s-3 25-7 25c-10 0-33 49-33 71 0 10-11 27-26 38-14 11-24 23-23 26 0 4-8 18-20 31s-21 29-21 34c0 6-9 20-20 32s-20 29-20 38c0 8-9 22-20 30s-20 20-20 27-4 13-10 13c-5 0-10 7-10 15s-3 15-8 15c-22 0-41 131-23 159 11 17-5 55-38 94-18 20-34 27-60 27-55 0-81 10-81 31 0 11-4 19-8 19-5 0-19 37-31 83-23 90-28 215-9 250 14 26 34 47 45 47 5 0 26 18 46 40 30 33 37 49 37 80 0 32-5 43-27 57-44 28-53 40-53 67 0 14-4 26-10 26s-10 54-10 143v143l-36 17c-27 13-39 15-50 7-30-26-100-13-125 24-8 11-39-46-39-72 0-21-22-72-32-72-3 0-14-24-23-54-18-57-58-109-92-120-12-4-28-18-37-31-9-14-21-25-27-25s-24-10-41-21c-27-19-29-25-23-61 8-43-18-108-42-108-7 0-13-4-13-10 0-5-7-10-15-10s-15-4-15-10c0-5-7-10-15-10s-15-4-15-10c0-5-12-10-26-10s-23-4-19-10c3-5-1-10-9-10-20 0-21-37-1-56 8-9 15-13 15-9s7-1 16-9c8-9 37-30 62-48 47-32 66-53 90-98 9-16 10-26 3-28-6-2-11-9-11-15 0-17-62-77-79-77-25-1-51-25-51-49 0-27-28-71-45-71-6 0-17-12-23-26-10-20-17-24-35-18-12 4-29 15-38 25-9 11-26 19-39 19s-24 8-27 20c-3 11-14 20-24 20-11 0-19 4-19 9s-13 14-30 21c-16 7-30 16-30 21s-7 9-15 9-15 5-15 10c0 6-7 10-15 10-9 0-18 6-21 14s-19 20-35 26c-16 7-29 16-29 20 0 3-12 13-27 21-16 8-37 22-47 32-11 9-26 17-33 17s-13 5-13 10c0 6-11 10-25 10s-25 5-25 10c0 6-7 10-16 10s-24 9-33 19c-10 11-24 21-31 23-8 2-25 13-37 26-13 12-27 22-31 22s-24 15-44 33c-63 55-78 67-86 67-4 0-29 23-55 50-27 28-53 50-57 50-5 0-11 9-15 19-8 26-165 171-185 171-6 0-10 5-10 10 0 6-7 10-15 10s-15 3-15 8c0 4-18 18-40 32s-40 28-40 33c0 4-8 11-17 14-20 8-25 12-89 71-26 23-59 50-75 59-16 10-29 23-29 29 0 7-9 16-20 19s-20 10-20 15c0 10-47 60-56 60-3 0-19 9-35 20-22 17-35 19-61 12-39-10-51-41-19-49 11-3 18-9 15-14s1-9 8-9 19-9 26-20 19-20 27-20 15-6 15-13 16-21 35-30c20-9 38-24 41-32 4-8 15-15 25-15s19-4 19-10c0-5 6-10 13-10 8 0 22-9 32-20s22-20 27-20c13 0 38-26 38-39 0-6 9-16 20-23s20-18 20-25 5-13 10-13c6 0 10-6 10-14s7-16 15-20c8-3 23-22 33-42 24-52 131-174 152-174 6 0 10-6 10-14s8-17 18-20c11-4 25-18 32-31 7-14 17-25 22-25 4 0 8-5 8-11 0-12 82-115 109-137 9-7 32-25 51-40s41-35 49-44c9-10 21-18 27-18 7 0 14-7 18-15 3-8 16-20 28-25 13-6 46-28 73-50 28-22 62-46 78-53 15-6 27-15 27-19 0-5 5-8 10-8 6 0 31-19 55-42 58-55 58-56 135-105 36-24 75-52 87-63s31-20 43-20c11 0 20-4 20-8s13-15 29-25c17-10 52-40 79-67 45-45 50-55 62-123 7-42 11-121 8-181l-4-107-40-39c-23-21-53-42-67-45-32-8-87-71-94-107-3-16-9-28-14-28s-9-4-9-10c0-5-11-26-25-46-31-45-31-47 0-78 14-14 25-32 25-41 0-8 5-15 10-15 6 0 10-18 10-41 0-39-17-69-39-69-6 0-11-4-11-10 0-5-6-10-13-10s-22-8-33-19c-11-10-35-21-54-25-71-13-78-39-15-50 26-5 35-12 35-26 0-18-7-20-69-20s-70-2-85-25c-9-13-16-44-16-69s-5-48-10-51-10-17-10-30-9-44-20-70-20-60-20-75c0-16-5-32-10-35-6-3-10-19-10-36 0-16-4-29-10-29-5 0-10-18-10-40s-4-40-8-40-14-17-21-37c-7-21-21-57-32-80-10-24-19-48-19-55s-12-31-25-53c-14-22-25-48-25-57 0-10-4-18-8-18s-14-21-21-47c-18-64-34-103-43-103-5 0-8-16-8-35s-4-35-10-35c-5 0-10-16-10-35s-4-35-10-35c-5 0-10-9-10-20s-3-20-7-20c-10 0-33-49-33-68 0-7-11-29-25-49-13-20-22-40-19-45 3-4-5-22-17-39-12-18-34-55-48-83-13-28-28-53-31-56-17-13-70-100-70-114 0-15-9-37-32-76-5-8-18-34-29-57-11-24-23-43-27-43s-20-20-37-45c-16-24-33-45-37-45-5 0-8-6-8-14 0-13-36-89-53-111-25-33-59-86-78-122-12-24-26-43-31-43-4 0-8-6-8-13s-9-23-20-35-20-25-20-30c0-4-14-35-30-67s-30-65-30-72-4-13-10-13c-5 0-10-8-10-18s-16-45-36-78c-19-32-35-60-35-62 1-1-3-8-9-15-86-106-137-173-148-193-18-33-37-30-53 7-7 18-22 41-33 53-30 30-66 94-66 117 0 10-4 19-10 19-5 0-10 6-10 14s-3 16-7 18c-13 5-53 84-53 103 0 9-9 28-20 42s-20 32-20 39c0 19-32 84-42 84-4 0-8 7-8 15s-4 23-9 33c-5 9-19 40-32 67-13 28-27 52-31 53-5 2-8 10-8 19 0 8-6 21-14 29-8 7-22 35-32 61-10 27-22 51-26 54-5 3-10 14-13 25-2 10-13 45-24 76-12 32-21 64-21 72s-3 16-7 18c-5 2-19 24-32 51-13 26-28 47-33 47-4 0-8 10-8 23 0 12-9 29-20 37s-20 24-20 36c0 11-9 29-19 38-11 10-23 31-26 47-4 16-11 31-16 35-5 3-17 23-25 44-9 21-22 41-30 44s-14 11-14 18-9 24-20 38-20 35-20 48c0 15-6 22-20 22-17 0-20 7-20 39 0 30-4 40-20 44-11 3-20 14-20 24 0 26-23 73-36 73-6 0-11 6-11 13-1 6-3 55-6 107-5 97-12 130-28 130-5 0-9 7-9 16 0 8-16 22-36 30-46 19-64 37-64 63 0 12-4 21-10 21-5 0-10 9-10 19 0 11-4 21-8 23-10 4-82 151-82 167 0 6-4 11-8 11-5 0-15 19-22 43-19 63-34 97-42 97-5 0-8 14-8 30 0 17-4 30-10 30s-10 28-10 64-4 67-9 70c-4 3-14 27-21 53-7 27-17 52-21 58-5 5-9 17-9 27s-4 18-9 18c-9 0-37 60-34 71 1 4-9 19-22 33-14 15-25 38-25 52s-9 42-20 64c-11 21-25 71-32 109-7 39-16 71-20 71s-8 27-8 60-4 60-10 60c-5 0-10 14-10 30 0 17-4 30-10 30-5 0-10 16-10 35s-4 35-10 35c-5 0-10 9-10 20s-4 20-9 20-22 29-37 65c-16 36-32 65-36 65-5 0-8 6-8 13 0 22-31 78-46 84-8 3-14 14-14 24s-4 19-8 19c-5 0-14 16-22 35s-17 35-22 35c-4 0-8 9-8 20s-4 20-10 20c-5 0-10 13-10 29 0 17-4 32-9 35s-12 58-16 121-11 118-17 121c-5 4-20 2-31-4-55-25-77-31-77-22 0 6-13 10-30 10-27 0-30 3-31 33-4 153-15 245-33 262-39 38-62 45-146 45-84-1-120-12-120-39 0-6-4-11-9-11-11 0-31-55-31-87 0-13-8-42-19-66-10-23-27-71-37-106-16-58-53-111-77-111-5 0-15-7-23-15-9-9-31-14-58-13-45 2-76-14-76-39 0-7-9-23-20-35s-20-28-20-35-3-13-7-13c-17 0-85-183-77-205 3-7 0-16-5-20-14-8-41-72-41-96 0-11-4-19-10-19-5 0-10-9-10-19 0-11-4-23-10-26s-10-17-10-30-4-27-10-30c-5-3-10-17-10-31 0-13-4-24-8-24-5 0-19-24-32-52-13-29-27-55-31-58s-20-30-36-60c-21-41-34-56-53-58-14-2-30-8-35-12-6-5-17-5-25 0-8 6-34 10-57 10-36 0-45-5-64-32-13-18-27-34-31-36s-8-9-8-15c0-7-14-26-30-44-17-18-30-36-30-41 0-4-8-17-18-28-10-10-29-35-42-54-14-19-38-46-53-59-35-30-39-34-102-105-27-32-76-85-107-118-32-34-58-65-58-69 0-5-8-17-17-28-45-47-83-92-83-97 0-4-24-30-52-58-65-65-89-93-107-129-8-15-18-27-23-27-4 0-8-6-8-12-1-7-19-31-40-53-22-22-40-46-40-52 0-7-4-13-9-13s-19-21-32-47c-12-27-33-62-46-79s-23-35-23-41c0-5-9-18-19-30-11-11-29-38-40-59-25-46-42-74-56-90-57-66-115-141-115-148 0-3-13-20-30-38-16-17-30-35-30-39 0-5-15-24-32-43-18-19-45-49-60-65-15-17-35-31-43-31s-15-5-15-11c0-10-25-39-117-137-24-25-43-48-43-51 0-4-9-13-20-21-10-8-22-27-25-42-4-15-10-28-13-28-8 0-32-49-32-65 0-6-8-20-18-31-10-10-28-35-42-54-47-67-102-110-142-110-56 0-68 8-68 45 0 19 5 37 11 41 16 10 5 192-14 235-24 54-37 285-22 399 4 25 15 64 26 87 10 24 19 48 19 55s6 31 14 53c10 28 16 119 20 301 3 143 8 267 10 275 5 12 8 67 19 279 1 19-2 150-6 290-5 140-5 265 0 277 4 12 5 124 1 250-4 125-9 485-12 798-3 314-7 642-10 730-14 422-17 702-6 750 9 39 25 160 29 218 1 5 6 5 11 2 6-4 10 24 10 77 0 80 13 141 37 169 8 10 12 83 12 229 0 136 4 216 11 218 5 2 10 16 10 32 0 20 14 42 49 78 54 55 76 104 61 132-6 10-10 28-10 39 0 12-3 21-7 21-13 0-33 51-33 81 0 15-4 31-10 34-14 9-13 372 1 381 7 4 9 21 5 48-4 22-11 169-17 326-5 157-12 332-15 389-4 68-2 107 5 114 6 6 11 37 11 69s4 58 10 58 10 9 10 19c0 15 8 21 33 24 45 6 111-3 119-17zm10752-392c8-21-1-34-25-34-12 0-19 7-19 18 0 34 33 45 44 16zm-84-64c0-5-9-10-20-10s-20 5-20 10c0 6 9 10 20 10s20-4 20-10z" transform="translate(-50.53 -63.418) scale(.0233)"/>
</svg>